<mxfile host="app.diagrams.net" modified="2023-01-17T05:46:38.508Z" agent="5.0 (Windows NT 10.0; Win64; x64) AppleWebKit/537.36 (KHTML, like Gecko) Chrome/108.0.0.0 Safari/537.36" etag="mPSCpSd4M7Zgf8SJ-8Al" version="20.8.5" type="github">
  <diagram id="C5RBs43oDa-KdzZeNtuy" name="Page-1">
    <mxGraphModel dx="714" dy="763" grid="1" gridSize="10" guides="1" tooltips="1" connect="1" arrows="1" fold="1" page="1" pageScale="1" pageWidth="827" pageHeight="1169" math="0" shadow="0">
      <root>
        <mxCell id="WIyWlLk6GJQsqaUBKTNV-0" />
        <mxCell id="WIyWlLk6GJQsqaUBKTNV-1" parent="WIyWlLk6GJQsqaUBKTNV-0" />
        <mxCell id="UW_1w3ph0WZ_Eahyw3Gz-10" value="" style="edgeStyle=orthogonalEdgeStyle;rounded=0;orthogonalLoop=1;jettySize=auto;html=1;fontFamily=Lucida Console;" edge="1" parent="WIyWlLk6GJQsqaUBKTNV-1" source="WIyWlLk6GJQsqaUBKTNV-3" target="UW_1w3ph0WZ_Eahyw3Gz-2">
          <mxGeometry relative="1" as="geometry" />
        </mxCell>
        <mxCell id="WIyWlLk6GJQsqaUBKTNV-3" value="初始化app" style="rounded=1;whiteSpace=wrap;html=1;fontSize=12;glass=0;strokeWidth=1;shadow=0;" parent="WIyWlLk6GJQsqaUBKTNV-1" vertex="1">
          <mxGeometry x="500" y="100" width="120" height="40" as="geometry" />
        </mxCell>
        <mxCell id="UW_1w3ph0WZ_Eahyw3Gz-11" value="" style="edgeStyle=orthogonalEdgeStyle;rounded=0;orthogonalLoop=1;jettySize=auto;html=1;fontFamily=Lucida Console;" edge="1" parent="WIyWlLk6GJQsqaUBKTNV-1" source="UW_1w3ph0WZ_Eahyw3Gz-2" target="UW_1w3ph0WZ_Eahyw3Gz-3">
          <mxGeometry relative="1" as="geometry" />
        </mxCell>
        <mxCell id="UW_1w3ph0WZ_Eahyw3Gz-2" value="注册pinia" style="rounded=1;whiteSpace=wrap;html=1;fontSize=12;glass=0;strokeWidth=1;shadow=0;" vertex="1" parent="WIyWlLk6GJQsqaUBKTNV-1">
          <mxGeometry x="500" y="180" width="120" height="40" as="geometry" />
        </mxCell>
        <mxCell id="UW_1w3ph0WZ_Eahyw3Gz-12" value="" style="edgeStyle=orthogonalEdgeStyle;rounded=0;orthogonalLoop=1;jettySize=auto;html=1;fontFamily=Lucida Console;" edge="1" parent="WIyWlLk6GJQsqaUBKTNV-1" source="UW_1w3ph0WZ_Eahyw3Gz-3" target="UW_1w3ph0WZ_Eahyw3Gz-4">
          <mxGeometry relative="1" as="geometry" />
        </mxCell>
        <mxCell id="UW_1w3ph0WZ_Eahyw3Gz-3" value="注册router" style="rounded=1;whiteSpace=wrap;html=1;fontSize=12;glass=0;strokeWidth=1;shadow=0;" vertex="1" parent="WIyWlLk6GJQsqaUBKTNV-1">
          <mxGeometry x="500" y="260" width="120" height="40" as="geometry" />
        </mxCell>
        <mxCell id="UW_1w3ph0WZ_Eahyw3Gz-5" value="&lt;div style=&quot;color: rgb(201, 209, 217); background-color: rgb(13, 17, 23); font-size: 14px; line-height: 19px;&quot;&gt;&lt;div style=&quot;line-height: 19px;&quot;&gt;&lt;font face=&quot;Lucida Console&quot;&gt;@imengyu/vue3-context-menu&amp;nbsp; &amp;nbsp;——右键展开菜单插件&lt;/font&gt;&lt;/div&gt;&lt;/div&gt;" style="text;html=1;strokeColor=none;fillColor=none;align=center;verticalAlign=middle;whiteSpace=wrap;rounded=0;" vertex="1" parent="WIyWlLk6GJQsqaUBKTNV-1">
          <mxGeometry y="160" width="400" height="30" as="geometry" />
        </mxCell>
        <mxCell id="UW_1w3ph0WZ_Eahyw3Gz-9" value="" style="group" vertex="1" connectable="0" parent="WIyWlLk6GJQsqaUBKTNV-1">
          <mxGeometry x="500" y="320" width="290" height="100" as="geometry" />
        </mxCell>
        <mxCell id="UW_1w3ph0WZ_Eahyw3Gz-4" value="动态创建meta标签" style="rounded=1;whiteSpace=wrap;html=1;fontSize=12;glass=0;strokeWidth=1;shadow=0;" vertex="1" parent="UW_1w3ph0WZ_Eahyw3Gz-9">
          <mxGeometry y="27.5" width="120" height="45" as="geometry" />
        </mxCell>
        <mxCell id="UW_1w3ph0WZ_Eahyw3Gz-7" style="edgeStyle=orthogonalEdgeStyle;rounded=0;orthogonalLoop=1;jettySize=auto;html=1;entryX=1;entryY=0.5;entryDx=0;entryDy=0;fontFamily=Lucida Console;" edge="1" parent="UW_1w3ph0WZ_Eahyw3Gz-9" source="UW_1w3ph0WZ_Eahyw3Gz-6" target="UW_1w3ph0WZ_Eahyw3Gz-4">
          <mxGeometry relative="1" as="geometry" />
        </mxCell>
        <mxCell id="UW_1w3ph0WZ_Eahyw3Gz-6" value="避免native-ui与其它样式引起冲突" style="shape=note;whiteSpace=wrap;html=1;backgroundOutline=1;darkOpacity=0.05;fontFamily=Lucida Console;" vertex="1" parent="UW_1w3ph0WZ_Eahyw3Gz-9">
          <mxGeometry x="210" width="80" height="100" as="geometry" />
        </mxCell>
        <mxCell id="UW_1w3ph0WZ_Eahyw3Gz-16" value="&lt;h1&gt;main.ts&lt;/h1&gt;&lt;p&gt;项目入口文件&lt;/p&gt;" style="text;html=1;strokeColor=none;fillColor=none;spacing=5;spacingTop=-20;whiteSpace=wrap;overflow=hidden;rounded=0;fontFamily=Lucida Console;" vertex="1" parent="WIyWlLk6GJQsqaUBKTNV-1">
          <mxGeometry x="70" y="40" width="190" height="120" as="geometry" />
        </mxCell>
        <mxCell id="UW_1w3ph0WZ_Eahyw3Gz-21" value="" style="edgeStyle=orthogonalEdgeStyle;rounded=0;orthogonalLoop=1;jettySize=auto;html=1;fontFamily=Lucida Console;" edge="1" parent="WIyWlLk6GJQsqaUBKTNV-1" source="UW_1w3ph0WZ_Eahyw3Gz-17" target="WIyWlLk6GJQsqaUBKTNV-3">
          <mxGeometry relative="1" as="geometry" />
        </mxCell>
        <mxCell id="UW_1w3ph0WZ_Eahyw3Gz-17" value="导入依赖的样式文件" style="rounded=1;whiteSpace=wrap;html=1;fontSize=12;glass=0;strokeWidth=1;shadow=0;" vertex="1" parent="WIyWlLk6GJQsqaUBKTNV-1">
          <mxGeometry x="500" y="10" width="120" height="40" as="geometry" />
        </mxCell>
        <mxCell id="UW_1w3ph0WZ_Eahyw3Gz-22" value="使用unocss插件编写css" style="text;html=1;strokeColor=none;fillColor=none;align=center;verticalAlign=middle;whiteSpace=wrap;rounded=0;fontFamily=Lucida Console;" vertex="1" parent="WIyWlLk6GJQsqaUBKTNV-1">
          <mxGeometry y="210" width="160" height="30" as="geometry" />
        </mxCell>
        <mxCell id="UW_1w3ph0WZ_Eahyw3Gz-25" value="" style="edgeStyle=orthogonalEdgeStyle;rounded=0;orthogonalLoop=1;jettySize=auto;html=1;fontFamily=Lucida Console;" edge="1" parent="WIyWlLk6GJQsqaUBKTNV-1" source="UW_1w3ph0WZ_Eahyw3Gz-23" target="WIyWlLk6GJQsqaUBKTNV-3">
          <mxGeometry relative="1" as="geometry" />
        </mxCell>
        <mxCell id="UW_1w3ph0WZ_Eahyw3Gz-23" value="使用APP.vue" style="rounded=0;whiteSpace=wrap;html=1;fontFamily=Lucida Console;" vertex="1" parent="WIyWlLk6GJQsqaUBKTNV-1">
          <mxGeometry x="660" y="90" width="120" height="60" as="geometry" />
        </mxCell>
      </root>
    </mxGraphModel>
  </diagram>
</mxfile>
